Normalized EMG Linear Envelopes
nRows=143
nColumns=4

endheader
time	 med_gas_r	  soleus_r	 tib_ant_r	
8.5494	  0.016514	  0.043641	  0.004235	
8.58266	  0.016653	  0.042911	  0.004220	
8.61593	  0.016771	  0.042678	  0.004230	
8.64919	  0.016892	  0.042992	  0.004269	
8.68246	  0.017003	  0.044058	  0.004339	
8.71573	  0.017077	  0.045912	  0.004436	
8.74899	  0.017089	  0.048325	  0.004554	
8.78226	  0.017018	  0.050895	  0.004682	
8.81552	  0.016804	  0.053046	  0.004797	
8.84879	  0.016475	  0.054492	  0.004878	
8.88206	  0.016140	  0.055610	  0.004918	
8.91532	  0.015910	  0.056613	  0.004916	
8.94859	  0.015818	  0.057663	  0.004875	
8.98185	  0.015780	  0.058790	  0.004797	
9.01512	  0.015728	  0.059876	  0.004689	
9.04839	  0.015642	  0.061114	  0.004564	
9.08165	  0.015529	  0.062743	  0.004437	
9.11492	  0.015455	  0.064577	  0.004329	
9.14819	  0.015495	  0.066052	  0.004276	
9.18145	  0.015657	  0.066692	  0.004289	
9.21472	  0.015893	  0.066394	  0.004353	
9.24798	  0.016176	  0.065579	  0.004449	
9.28125	  0.016469	  0.064479	  0.004548	
9.31452	  0.016722	  0.062932	  0.004601	
9.34778	  0.016914	  0.060747	  0.004566	
9.38105	  0.017017	  0.058238	  0.004446	
9.41431	  0.017022	  0.055850	  0.004286	
9.44758	  0.016960	  0.053796	  0.004121	
9.48085	  0.016905	  0.052313	  0.003983	
9.51411	  0.016951	  0.051533	  0.003900	
9.54738	  0.017154	  0.051334	  0.003890	
9.58065	  0.017546	  0.051542	  0.003958	
9.61391	  0.018103	  0.051825	  0.004092	
9.64718	  0.018709	  0.051812	  0.004268	
9.68044	  0.019222	  0.051286	  0.004472	
9.71371	  0.019536	  0.050286	  0.004682	
9.74698	  0.019617	  0.049053	  0.004852	
9.78024	  0.019549	  0.047938	  0.004920	
9.81351	  0.019433	  0.047123	  0.004862	
9.84677	  0.019312	  0.046617	  0.004723	
9.88004	  0.019239	  0.046479	  0.004586	
9.91331	  0.019234	  0.046619	  0.004509	
9.94657	  0.019272	  0.046963	  0.004523	
9.97984	  0.019281	  0.047598	  0.004627	
10.0131	  0.019274	  0.048516	  0.004799	
10.0464	  0.019309	  0.049646	  0.005012	
10.0796	  0.019392	  0.050999	  0.005241	
10.1129	  0.019493	  0.052584	  0.005457	
10.1462	  0.019621	  0.054235	  0.005623	
10.1794	  0.019786	  0.055510	  0.005696	
10.2127	  0.019954	  0.056068	  0.005629	
10.246	  0.020088	  0.055759	  0.005433	
10.2792	  0.020161	  0.054909	  0.005162	
10.3125	  0.020211	  0.053987	  0.004860	
10.3458	  0.020323	  0.053234	  0.004557	
10.379	  0.020446	  0.052586	  0.004280	
10.4123	  0.020480	  0.051904	  0.004051	
10.4456	  0.020416	  0.050963	  0.003884	
10.4788	  0.020233	  0.049732	  0.003781	
10.5121	  0.019933	  0.048385	  0.003742	
10.5454	  0.019562	  0.047375	  0.003756	
10.5786	  0.019233	  0.047073	  0.003806	
10.6119	  0.018968	  0.047559	  0.003881	
10.6452	  0.018679	  0.048593	  0.003967	
10.6784	  0.018384	  0.049792	  0.004054	
10.7117	  0.018153	  0.050771	  0.004153	
10.745	  0.017971	  0.051212	  0.004259	
10.7782	  0.017805	  0.050902	  0.004361	
10.8115	  0.017659	  0.050214	  0.004464	
10.8448	  0.017537	  0.049538	  0.004566	
10.878	  0.017454	  0.049172	  0.004656	
10.9113	  0.017416	  0.049049	  0.004727	
10.9446	  0.017424	  0.048914	  0.004771	
10.9778	  0.017498	  0.048902	  0.004786	
11.0111	  0.017661	  0.049277	  0.004775	
11.0444	  0.017882	  0.050030	  0.004745	
11.0776	  0.018123	  0.050815	  0.004714	
11.1109	  0.018379	  0.051274	  0.004695	
11.1442	  0.018623	  0.051325	  0.004666	
11.1774	  0.018822	  0.051279	  0.004601	
11.2107	  0.018973	  0.051264	  0.004501	
11.244	  0.019124	  0.051291	  0.004385	
11.2772	  0.019321	  0.051212	  0.004277	
11.3105	  0.019560	  0.050922	  0.004203	
11.3437	  0.019754	  0.050341	  0.004170	
11.377	  0.019785	  0.049574	  0.004162	
11.4103	  0.019717	  0.049029	  0.004178	
11.4435	  0.019702	  0.049015	  0.004224	
11.4768	  0.019787	  0.049480	  0.004301	
11.5101	  0.019902	  0.050413	  0.004392	
11.5433	  0.019867	  0.051965	  0.004484	
11.5766	  0.019582	  0.054090	  0.004588	
11.6099	  0.019107	  0.056351	  0.004708	
11.6431	  0.018574	  0.057904	  0.004843	
11.6764	  0.018115	  0.058381	  0.004984	
11.7097	  0.017773	  0.058113	  0.005098	
11.7429	  0.017552	  0.057499	  0.005158	
11.7762	  0.017494	  0.056933	  0.005158	
11.8095	  0.017620	  0.056530	  0.005096	
11.8427	  0.017960	  0.056178	  0.004980	
11.876	  0.018478	  0.055784	  0.004830	
11.9093	  0.019133	  0.055377	  0.004675	
11.9425	  0.019859	  0.054973	  0.004549	
11.9758	  0.020535	  0.054354	  0.004471	
12.0091	  0.021152	  0.053382	  0.004441	
12.0423	  0.021745	  0.052252	  0.004445	
12.0756	  0.022268	  0.051372	  0.004470	
12.1089	  0.022648	  0.050899	  0.004510	
12.1421	  0.022819	  0.050992	  0.004562	
12.1754	  0.022709	  0.051591	  0.004625	
12.2087	  0.022330	  0.052371	  0.004701	
12.2419	  0.021857	  0.052818	  0.004784	
12.2752	  0.021438	  0.052770	  0.004850	
12.3085	  0.021094	  0.052286	  0.004889	
12.3417	  0.020815	  0.051400	  0.004914	
12.375	  0.020610	  0.050283	  0.004936	
12.4083	  0.020413	  0.049230	  0.004951	
12.4415	  0.020111	  0.048518	  0.004936	
12.4748	  0.019684	  0.048236	  0.004869	
12.5081	  0.019177	  0.048279	  0.004763	
12.5413	  0.018727	  0.048520	  0.004654	
12.5746	  0.018469	  0.048769	  0.004553	
12.6079	  0.018408	  0.048903	  0.004470	
12.6411	  0.018452	  0.048883	  0.004404	
12.6744	  0.018530	  0.048589	  0.004341	
12.7077	  0.018675	  0.047630	  0.004292	
12.7409	  0.018952	  0.045956	  0.004276	
12.7742	  0.019439	  0.044234	  0.004301	
12.8075	  0.020178	  0.043497	  0.004369	
12.8407	  0.021317	  0.044610	  0.004472	
12.874	  0.023086	  0.048282	  0.004605	
12.9073	  0.025648	  0.055169	  0.004755	
12.9405	  0.029140	  0.065643	  0.004911	
12.9738	  0.033654	  0.079639	  0.005097	
13.0071	  0.039123	  0.096684	  0.005347	
13.0403	  0.045309	  0.115827	  0.005670	
13.0736	  0.052122	  0.135057	  0.006057	
13.1069	  0.059305	  0.152355	  0.006499	
13.1401	  0.066572	  0.167770	  0.006964	
13.1734	  0.073918	  0.182339	  0.007417	
13.2067	  0.081089	  0.197275	  0.007871	
13.2399	  0.087546	  0.212569	  0.008321	
13.2732	  0.093188	  0.229456	  0.008752	
